<svg width="40" height="40" viewBox="0 0 40 40" fill="none" xmlns="http://www.w3.org/2000/svg"><rect fill="#B6509E" width="40" height="40" rx="12"/><g transform="translate(4 4)"><circle cx="16" cy="16" r="14" fill="#fff"/><svg width="32" height="32" viewBox="0 0 32 32" xmlns="http://www.w3.org/2000/svg"><path fill-rule="evenodd" clip-rule="evenodd" d="M0 16C0 7.163 7.163 0 16 0s16 7.163 16 16-7.163 16-16 16S0 24.837 0 16z" fill="#B6509E"/><path d="M23.428 22.573L17.697 9.042C17.373 8.342 16.894 8 16.26 8h-.507c-.633 0-1.112.343-1.436 1.042l-2.493 5.895H9.937a1.045 1.045 0 00-.724.294.997.997 0 00-.304.707v.013c.002.266.111.52.304.707.192.187.453.293.724.294h1.014l-2.38 5.62a1.161 1.161 0 00-.07.385c-.011.277.09.548.281.754a.992.992 0 00.76.288c.214-.003.42-.07.592-.192.18-.13.322-.306.409-.508l2.62-6.347h1.816c.272-.001.532-.107.724-.294a.997.997 0 00.304-.707v-.027a.997.997 0 00-.303-.707 1.045 1.045 0 00-.725-.294h-.971l2-4.867 5.45 13.243c.086.202.227.377.408.507.172.122.378.19.591.192a1.01 1.01 0 00.76-.288c.192-.205.293-.476.282-.754a.888.888 0 00-.07-.383z" fill="#fff"/></svg></g></svg>